<?xml version="1.0" encoding="iso-8859-1"?>
<!-- Generator: Adobe Illustrator 16.0.0, SVG Export Plug-In . SVG Version: 6.00 Build 0)  -->
<!DOCTYPE svg PUBLIC "-//W3C//DTD SVG 1.1//EN" "http://www.w3.org/Graphics/SVG/1.1/DTD/svg11.dtd">
<svg xmlns="http://www.w3.org/2000/svg" xmlns:xlink="http://www.w3.org/1999/xlink" version="1.1" id="Capa_1" x="0px" y="0px" width="512px" height="512px" viewBox="0 0 188.71 188.71" style="enable-background:new 0 0 188.71 188.71;" xml:space="preserve">
<g>
	<path d="M168.722,136.957c-5.398-6.005-18.321-21.243-28.949-23.585c-0.186-0.248-0.432-0.445-0.737-0.603   c0.002-0.004,0.005-0.008,0.008-0.011c-0.865-0.393-1.746-0.745-2.617-1.119c21.437-27.542,5.918-72.16-16.76-93.612   C90.862-9.218,46.75-3.15,20.88,24.241C-3.555,50.114-8.229,97.337,15.903,125.014c19.192,22.014,67.946,36.505,90.659,11.208   c16.418,16.976,67.007,76.58,81.086,40.933C193.014,163.565,176.715,145.846,168.722,136.957z M159.329,136.032   c-1.093-0.737-2.146-1.448-3.129-2.132c-14.497-10.073-30.444-18.22-44.271-29.238c1.244-1.934,2.331-3.942,3.319-5.992   c2.25,1.952,4.59,3.802,6.96,5.601c2.591,1.968,5.209,4.304,7.947,6.317c-0.015,0.098-0.061,0.195-0.066,0.292   c-0.671,0.543-0.675,1.715-0.127,2.402c-0.008,0.002-0.018,0.005-0.025,0.007c0.022,0.024,0.055,0.038,0.078,0.062   c0.072,0.081,0.149,0.151,0.238,0.212c0.172,0.983,0.92,1.752,1.902,2.168c-0.043-0.012-0.035-0.006,0.034,0.021   c0.014,0.006,0.024,0.017,0.039,0.021c0.018,0.008,0.036,0.014,0.055,0.021c0.081,0.036,0.173,0.078,0.285,0.148   c0.224,0.143,0.367,0.264,0.594,0.456c0.291,1.172,1.256,2.246,2.652,2.396C144.154,119.676,153.324,129.878,159.329,136.032z    M103.271,105.048c-0.435,0.055-0.851,0.261-1.097,0.661c-0.645,1.047-1.312,2.024-1.993,2.956   c-0.346,0.369-0.653,0.765-1.01,1.123c-0.313,0.315-0.526,0.65-0.688,0.991c-10.787,12.716-25.635,12.508-41.438,4.018   C36.335,103.67,26.449,80.264,36.874,58.66c9.869-20.451,31.311-27.169,50.867-19.755c2.081,1.192,4.146,2.37,6.178,3.54   c3.097,1.782,6.041,3.776,8.932,5.845C118.301,63.405,116.497,87.958,103.271,105.048z M117.512,93.138   c2.671,1.668,5.286,3.409,7.844,5.25c2.845,2.049,5.475,4.744,8.446,6.656c-0.698,1.078-1.451,2.128-2.267,3.14   c-1.96-1.238-4.007-2.379-5.88-3.643c-3.367-2.27-6.604-4.711-9.872-7.111C116.422,96.02,116.989,94.585,117.512,93.138z    M135.507,102.103c-2.229-2.102-5.082-3.755-7.54-5.443c-3.116-2.142-6.354-4.096-9.65-5.945c0.901-2.907,1.584-5.865,1.951-8.856   c2.634,3.232,13.459,9.54,18.458,12.29C137.929,96.925,136.844,99.58,135.507,102.103z M139.706,90.025   c-2.839-1.683-5.916-3.117-8.724-4.672c-2.286-1.265-4.562-2.543-6.862-3.78c-0.688-0.37-1.451-0.972-2.209-1.181   c-0.392-0.108-0.601-0.034-0.75,0.093c-0.049-0.114-0.122-0.22-0.247-0.286c-0.125-0.065-0.245-0.126-0.381-0.163   c-0.017-0.005-0.032,0.006-0.048,0.003c0.19-2.212,0.285-4.425,0.183-6.627c5.9,5.411,12.822,9.885,19.446,14.279   C140,88.477,139.855,89.251,139.706,90.025z M140.557,83.53c-6.505-4.636-13.908-7.859-20.099-13.006   c-0.361-3.371-1.064-6.695-2.165-9.908c7.325,6.3,14.574,12.714,22.407,18.322C140.715,80.481,140.658,82.012,140.557,83.53z    M115.309,22.385c4.858,4.067,9.326,9.52,13.14,15.756c-7.254-6.097-15.502-11.494-22.971-16.948   c-6.573-4.8-13.942-10.329-21.883-13.405C94.932,9.674,105.935,14.54,115.309,22.385z M75.223,6.993   c0.096,0.132,0.203,0.263,0.409,0.331c22.767,7.569,36.445,29.667,57.405,39.716c0.053,0.025,0.104,0.024,0.156,0.044   c1.189,2.606,2.289,5.274,3.224,8.013c-22.64-17.969-48.235-31.769-72.375-47.61C67.741,6.971,71.483,6.858,75.223,6.993z    M61.527,7.877c25.265,18.503,51.682,35.375,76.886,53.975c0.943,3.759,1.621,7.565,1.981,11.35   c-8.397-6.185-16.667-12.626-24.971-19.048c-2.895-5.377-6.946-10.306-12.405-14.387c-6.199-4.634-12.853-7.672-19.583-9.229   c-10.664-7.257-21.711-13.908-33.439-19.437C53.741,9.645,57.606,8.585,61.527,7.877z M48.259,11.84   c6.909,6.558,14.985,12.277,23.373,17.518c-3.126,0.086-6.226,0.449-9.254,1.17c-2.994-2.327-6.634-4.024-9.811-6.04   c-4.172-2.646-8.14-5.601-11.854-8.858C43.152,14.17,45.683,12.935,48.259,11.84z M39.082,16.612   c3.391,3.357,7.082,6.351,10.915,9.195c2.595,1.925,5.403,4.184,8.369,5.87c-2.423,0.82-4.796,1.825-7.084,3.062   c-2.301-1.833-4.756-3.513-7.018-5.37c-3.566-2.928-7.077-5.924-10.619-8.881C35.398,19.074,37.223,17.806,39.082,16.612z    M31.799,21.977c3.484,3.136,6.941,6.301,10.462,9.396c1.877,1.65,3.814,3.582,5.917,5.193c-1.064,0.686-2.109,1.417-3.129,2.198   c-0.947-0.725-2.018-1.298-3.053-1.973c-2.191-1.431-4.307-2.977-6.405-4.539c-2.719-2.022-5.386-4.14-8.077-6.187   C28.89,24.614,30.327,23.262,31.799,21.977z M25.178,28.538c0.277-0.325,0.586-0.6,0.868-0.918c2.316,2.563,5.079,4.74,7.791,6.906   c2.383,1.903,5.411,4.918,8.516,6.502c-1.465,1.298-2.894,2.662-4.24,4.169c-0.066-0.3-0.26-0.58-0.627-0.774   c-5.839-3.097-11.33-6.403-16.45-10.445C22.344,32.096,23.709,30.265,25.178,28.538z M20.094,35.312   c4.807,4.502,10.18,8.457,16.08,11.354c0.18,0.088,0.356,0.129,0.525,0.141c-1.321,1.607-2.595,3.289-3.77,5.111   c-0.535,0.829-1.029,1.662-1.499,2.497c-1.832-1.257-3.78-2.381-5.582-3.661c-3.487-2.478-6.788-5.218-10.096-7.926   c-0.024-0.019-0.05-0.022-0.075-0.04C17.031,40.212,18.501,37.71,20.094,35.312z M14.578,44.846   c4.67,4.008,9.89,9.183,15.563,12.04c-0.959,1.969-1.766,3.95-2.407,5.937c-5.269-3.883-10.668-7.66-16.058-11.392   C12.546,49.188,13.524,46.996,14.578,44.846z M10.887,53.625c5.191,4.179,10.321,8.761,16.02,12.11   c-0.518,2.1-0.887,4.201-1.079,6.295c-1.741-2.998-5.483-5.172-8.231-7.059c-2.759-1.896-5.729-3.445-8.784-4.801   C9.406,57.958,10.117,55.781,10.887,53.625z M8.411,61.616c2.472,1.286,4.887,2.666,7.208,4.225   c3.457,2.322,5.905,5.896,9.327,8.096c0.281,0.181,0.535,0.149,0.76,0.048c-0.134,3,0.016,5.981,0.5,8.91   c-2.657-2.127-5.589-4.073-8.086-6.149c-3.681-3.06-7.31-6.183-10.957-9.285C7.503,65.499,7.929,63.552,8.411,61.616z    M6.794,69.951c3.156,2.885,6.305,5.778,9.485,8.637c3.308,2.975,6.999,7.14,11.068,9.329c2.412,8.476,7.234,16.386,13.768,23.004   C29.487,100.454,18.007,89.806,5.978,79.749C6.01,76.479,6.336,73.208,6.794,69.951z M18.116,118.191   c-4.136-5.372-7.091-11.278-9.089-17.458c6.414,7.327,15.799,13.956,21.738,19.144c7.262,6.344,14.666,12.514,22.241,18.479   c1.111,0.874,2.302,1.928,3.539,3.007C41.042,137.691,26.497,129.08,18.116,118.191z M64.506,142.8   c-3.351-3.024-7.68-5.575-10.95-8.27c-7.545-6.221-15.014-12.537-22.379-18.971c-6.758-5.903-13.499-11.826-19.929-18.09   c-0.611-0.595-2.337-2.053-3.997-3.608c-0.757-3.772-1.144-7.617-1.248-11.483c22.685,20.654,43.655,43.527,69.097,60.85   C71.606,143.383,68.055,143.232,64.506,142.8z M79.895,142.806c-11.653-8.275-22.518-17.444-33.153-26.882   c2.168,1.725,4.428,3.359,6.833,4.812c3.649,2.203,8.02,4,12.651,5.196c6.369,6.19,14.456,10.594,22.068,15.039   C85.574,141.813,82.768,142.434,79.895,142.806z M90.515,140.218c0.205-0.591,0.095-1.291-0.589-1.728   c-7.006-4.474-14.836-7.183-21.532-12.074c3.789,0.812,7.697,1.2,11.491,1.098c3.15,1.933,6.331,3.812,9.501,5.711   c2.199,1.316,4.459,3.127,6.85,4.387C94.389,138.611,92.487,139.496,90.515,140.218z M99.095,135.897   c-2.051-1.795-4.743-2.909-7.145-4.143c-2.928-1.503-5.877-2.967-8.816-4.45c2.723-0.296,5.325-0.914,7.75-1.828   c3.771,2.797,7.636,5.456,11.607,7.946C101.395,134.311,100.262,135.135,99.095,135.897z M161.927,178.697   c-8.318-4.293-15.319-11.26-22.058-17.633c-9.982-9.44-19.305-21.452-31.478-28.327c-0.264-1.348-1.664-2.33-3.034-1.639   c-0.087-0.041-0.166-0.096-0.253-0.136c-0.172-0.08-0.348-0.114-0.521-0.124c-3.761-2.098-7.513-4.209-11.175-6.478   c1.538-0.783,2.937-1.766,4.238-2.869c26.816,17.667,47.33,43.271,74.863,59.956C168.656,181.31,164.542,180.045,161.927,178.697z    M177.735,180.718c-28.91-16.727-49.447-44.324-78.724-60.473c1.363-1.396,2.562-2.988,3.496-4.863   c0.488-0.142,0.973-0.4,1.424-0.834c0.142-0.137,0.265-0.288,0.404-0.426c25.296,21.127,50.597,43.448,77.478,62.523   C181.066,178.708,179.6,180.004,177.735,180.718z M105.507,112.89c1.926-2.017,3.661-4.176,5.237-6.427   c21.517,18.891,46.805,31.655,66.759,52.533c0.276,0.289,0.605,0.431,0.937,0.463c2.273,4.337,3.785,8.867,3.898,13.456   C158.729,151.065,132.064,130.962,105.507,112.89z" fill="#FFFFFF"/>
</g>
<g>
</g>
<g>
</g>
<g>
</g>
<g>
</g>
<g>
</g>
<g>
</g>
<g>
</g>
<g>
</g>
<g>
</g>
<g>
</g>
<g>
</g>
<g>
</g>
<g>
</g>
<g>
</g>
<g>
</g>
</svg>
