<?xml version="1.0" encoding="iso-8859-1"?>
<!-- Generator: Adobe Illustrator 18.1.1, SVG Export Plug-In . SVG Version: 6.00 Build 0)  -->
<svg xmlns="http://www.w3.org/2000/svg" xmlns:xlink="http://www.w3.org/1999/xlink" version="1.1" id="Capa_1" x="0px" y="0px" viewBox="0 0 579.563 579.563" style="enable-background:new 0 0 579.563 579.563;" xml:space="preserve" width="512px" height="512px">
<g>
	<g>
		<path d="M70.686,258.264c0,6.936,1.836,13.056,5.508,18.36s8.364,9.18,14.076,11.628l30.6,16.524    c-5.712,2.445-11.628,3.672-17.748,3.672c-13.872,0-25.704-4.896-35.496-14.688s-14.688-21.624-14.688-35.496    s4.896-25.602,14.688-35.19s21.624-14.382,35.496-14.382c11.832,0,22.338,3.774,31.518,11.322    c9.18,7.548,14.994,17.238,17.442,29.07l-30.6-17.136c-5.712-3.672-11.832-5.508-18.36-5.508c-8.976,0-16.626,3.06-22.95,9.18    C73.848,241.74,70.686,249.288,70.686,258.264z M308.754,322.524c13.871,0,25.604,4.896,35.189,14.688    s14.383,21.624,14.383,35.496s-4.795,25.602-14.383,35.189c-9.588,9.589-21.318,14.383-35.189,14.383    c-12.238,0-22.95-3.774-32.13-11.322c-9.18-7.548-14.79-17.238-16.83-29.07l30.6,17.139c4.896,3.672,11.017,5.508,18.358,5.508    c8.979,0,16.523-3.063,22.646-9.183c6.119-6.117,9.18-13.668,9.18-22.644c0-6.936-1.836-13.056-5.508-18.36    c-3.672-5.304-8.365-9.18-14.076-11.628l-29.989-16.521C296.311,323.748,302.227,322.524,308.754,322.524z M453.797,187.272    c10.609,0,19.789,3.876,27.541,11.628s11.627,16.932,11.627,27.54s-3.875,19.686-11.627,27.234s-16.932,11.322-27.541,11.322    c-10.605,0-19.686-3.774-27.23-11.322c-7.549-7.548-11.322-16.626-11.322-27.234s3.773-19.788,11.322-27.54    C434.113,191.148,443.19,187.272,453.797,187.272z M453.797,285.804c16.73,0,30.906-5.712,42.535-17.136    c11.627-11.424,17.441-25.5,17.441-42.228s-5.814-30.906-17.441-42.534c-11.629-11.628-25.807-17.442-42.535-17.442    c-8.156,0-15.809,1.53-22.947,4.59c-7.143,3.06-13.467,7.344-18.975,12.852s-9.791,11.934-12.852,19.278    c-3.063,7.344-4.59,15.096-4.59,23.256s1.527,15.912,4.59,23.256c3.061,7.344,7.344,13.668,12.852,18.972    s11.832,9.486,18.975,12.546C437.988,284.274,445.639,285.804,453.797,285.804z M453.797,313.956    c12.24,0,23.664-2.244,34.273-6.732c10.607-4.485,19.889-10.71,27.846-18.666c7.955-7.956,14.279-17.238,18.975-27.846    c4.689-10.608,7.035-22.032,7.035-34.272s-2.346-23.664-7.035-34.272c-4.693-10.608-11.02-19.89-18.975-27.846    c-7.957-7.956-17.238-14.28-27.846-18.972c-10.609-4.692-22.033-7.038-34.273-7.038c-11.832,0-23.051,2.244-33.656,6.732    c-10.609,4.488-19.789,10.608-27.541,18.36s-13.977,16.932-18.666,27.54c-4.691,10.608-7.242,21.828-7.65,33.66l-56.916,80.172    h-0.611c-12.238,0-23.868,3.264-34.884,9.792l-103.43-61.813c-1.224-14.688-6.834-27.642-16.83-38.862    s-22.746-18.258-38.25-21.114c-9.384-1.224-18.36-0.816-26.928,1.224s-16.32,5.61-23.256,10.71s-12.75,11.322-17.442,18.666    c-4.692,7.344-7.65,15.504-8.874,24.48c-1.632,8.976-1.326,17.748,0.918,26.316c2.244,8.568,5.814,16.32,10.71,23.256    c4.896,6.938,11.016,12.75,18.36,17.442s15.504,7.854,24.48,9.486c6.528,1.224,12.852,1.323,18.972,0.306    c6.12-1.017,12.036-2.55,17.748-4.59L241.434,382.5c2.04,16.728,9.384,30.702,22.032,41.922s27.744,16.83,45.288,16.83    c9.387,0,18.156-1.836,26.316-5.508s15.299-8.568,21.42-14.688c6.119-6.119,11.016-13.26,14.688-21.42s5.508-16.932,5.508-26.313    l76.5-59.364L453.797,313.956L453.797,313.956z M562.12,0c4.08,0,7.549,1.428,10.404,4.284c2.854,2.856,4.285,6.324,4.285,10.404    v550.188c0,4.08-1.432,7.548-4.285,10.404c-2.855,2.854-6.324,4.283-10.404,4.283H17.442c-4.08,0-7.548-1.43-10.404-4.283    c-2.856-2.856-4.284-6.324-4.284-10.404V14.688c0-4.08,1.428-7.548,4.284-10.404S13.362,0,17.442,0H562.12L562.12,0z" fill="#FFFFFF"/>
	</g>
</g>
<g>
</g>
<g>
</g>
<g>
</g>
<g>
</g>
<g>
</g>
<g>
</g>
<g>
</g>
<g>
</g>
<g>
</g>
<g>
</g>
<g>
</g>
<g>
</g>
<g>
</g>
<g>
</g>
<g>
</g>
</svg>
