<?xml version="1.0" encoding="iso-8859-1"?>
<!-- Generator: Adobe Illustrator 16.0.0, SVG Export Plug-In . SVG Version: 6.00 Build 0)  -->
<!DOCTYPE svg PUBLIC "-//W3C//DTD SVG 1.1//EN" "http://www.w3.org/Graphics/SVG/1.1/DTD/svg11.dtd">
<svg xmlns="http://www.w3.org/2000/svg" xmlns:xlink="http://www.w3.org/1999/xlink" version="1.1" id="Capa_1" x="0px" y="0px" width="512px" height="512px" viewBox="0 0 190.949 190.949" style="enable-background:new 0 0 190.949 190.949;" xml:space="preserve">
<g>
	<g>
		<path d="M169.355,180.372c2.188-44.312,0.076-88.624,3.971-132.931c0.209-2.386-1.044-3.846-2.718-4.412    c-4.53-6.597-13.454-11.866-19.535-16.354c-7.47-5.512-15.008-11.103-22.788-16.22c1.071-2.024,0.698-4.776-2.11-5.272    c-16.436-2.908-34.806-0.645-51.606-1.679C63.187,2.804,41.186-2.838,29.02,1.836c-1.696-0.504-3.53,0.327-4.693,1.839    c-0.216,0.246-0.316,0.559-0.435,0.862c-0.054,0.063-0.111,0.131-0.2,0.241c-0.689,0.795-1.343,1.621-1.981,2.458    c-1.101,1.442-2.094,2.929-2.862,4.576c-0.748,1.603-0.187,3.07,0.833,3.973c-2.73,8.767-1.036,19.918-1.162,28.607    c-0.262,18.071-0.156,36.162-0.157,54.234c0,16.038,0.008,32.075,0.011,48.112c0.002,11.479-2.699,26.126,1.986,36.79    c0.354,0.806,1.107,1.309,1.959,1.51c0.038,2.934,2.286,5.719,5.765,4.374c19.421-7.509,47.693-2.268,67.912-1.382    c22.522,0.988,46.577,4.548,69.137,2.04c0.324,0.019,0.637-0.027,0.956-0.087c0.267-0.032,0.54-0.04,0.806-0.074    C172.168,189.246,173.02,182.1,169.355,180.372z M95.997,178.168c-20.544-0.927-48.395-5.763-68.624,1.33    c2.236-8.749,0.629-19.035,0.631-27.839c0.005-17.677,0.008-35.354,0.012-53.032c0.003-16.362-0.078-32.725-0.124-49.086    c-0.031-10.726,2.551-26.14-2.121-36.386c0.451-0.574,0.931-1.126,1.44-1.674c0.512-0.549,1.05-1.072,1.59-1.593    c0.088-0.076,0.134-0.119,0.192-0.171c11.09,4.783,29.328,2.533,40.146,3.272c15.627,1.068,35.991,4.795,52.005,0.946    c6.989,6.453,14.707,12.165,22.056,18.187c6.273,5.141,12.983,12.867,20.177,17.285c-4.4,43.257-4.522,87.683-2.068,131.129    C139.874,182.289,117.236,179.127,95.997,178.168z" fill="#FFFFFF"/>
		<path d="M148.384,67.529c0.114-1.125-0.402-1.917-1.146-2.421c-0.139-0.213-0.281-0.427-0.465-0.636    c-3.433-3.92-7.905-7.025-11.828-10.434c-2.061-1.791-4.05-3.664-5.999-5.575c-1.478-1.449-2.476-3.093-4.173-3.974    c0.065-0.868-0.863-1.767-1.742-1.159c-0.312,0.216-0.576,0.469-0.844,0.718c-0.207-0.115-0.379-0.265-0.618-0.345    c-23.11-7.734-51.167-6.922-75.203-5.471c-2.513,0.152-4.541,1.967-4.574,4.575c-0.425,32.953-7.776,67.149,0.243,99.662    c0.328,1.327,1.485,1.941,2.67,1.995c0.225,0.672,0.691,1.278,1.514,1.678c4.865,2.358,21.087,5.275,24.31-1.346    c0.631,0.167,1.312,0.261,2.106,0.176c0.848-0.092,1.346-0.48,1.664-1.268c0.854-2.11,0.003-3.846-0.611-5.891    c-0.939-3.131-0.011-6.531,1.319-9.381c1.249-2.675,3.321-4.945,5.688-6.673c2.466-1.803,5.375-1.96,6.863-4.829    c0.744-1.435,0.384-3.213-1.064-4.06c-2.327-1.357-4.855-1.078-7.301,0.093c-8.031-5.611-11.722-13.688-7.205-23.833    c4.525-10.162,14.785-16.155,25.663-16.078c10.807,0.077,19.574,8.256,20.902,18.804c0.32,2.541,0.196,4.772-0.25,6.792    c-0.019-0.014-0.037-0.028-0.055-0.041c-1.434-1.096-3.305,1.343-1.927,2.496c0.308,0.257,0.621,0.507,0.93,0.764    c-2.804,6.345-9.095,10.462-14.553,15.814c-1.625,1.593-1.151,3.631,0.206,4.787c-0.337,1.285,0.395,2.865,2.18,3.054    c5.395,0.567,10.563,2.643,13.619,7.315c2.789,4.267,0.695,8.402,1.987,12.762c0.491,1.654,2.215,2.511,3.737,2.116    c0.365,0.286,0.784,0.526,1.299,0.664C160.92,157.737,146.83,82.944,148.384,67.529z M120.539,51.318    c0.339,0.015,0.608-0.073,0.902-0.127c2,3.307,4.789,6.075,7.588,8.763c3.775,3.627,7.629,7.255,11.63,10.632    c0.224,0.188,0.45,0.337,0.68,0.477c-0.05,0.292-0.062,0.592-0.108,0.885c-4.751-3.312-10.096-5.894-15.019-8.924    c-6.227-3.83-12.177-8.048-17.976-12.479C112.319,50.854,116.414,51.132,120.539,51.318z M126.69,95.588    c1.427,0.787,2.854,1.578,4.25,2.423c3.186,1.925,6.337,5.445,9.938,6.51c0.006,0.213,0.02,0.438,0.024,0.65    c0.088,3.301,0.197,6.634,0.157,9.888c-3.166-2.543-6.884-4.612-10.129-6.944c-1.969-1.414-3.881-2.905-5.818-4.363    C125.957,101.053,126.509,98.288,126.69,95.588z M123.069,79.573c5.696,4.622,11.294,9.416,17.354,13.231    c0.074,2.065,0.149,4.077,0.236,6.123c-1.979-1.424-4.391-2.483-6.334-3.565c-2.489-1.386-5.035-2.623-7.621-3.774    c-0.035-0.53-0.069-1.06-0.136-1.576C126.077,86.117,124.85,82.632,123.069,79.573z M48.312,85.369    c1.633,0.744,3.283,1.454,4.944,2.152c2.67,1.121,5.63,3.075,8.564,3.29c1.511,0.111,2.079-1.836,1.166-2.813    c-1.844-1.974-5.336-2.519-7.787-3.39c-2.222-0.79-4.438-1.604-6.644-2.442c0.311-3.903,0.62-7.81,0.918-11.717    c1.73,1.406,3.402,2.884,5.184,4.231c3.734,2.82,8.127,6.266,12.778,7.268c0.032,0.006,0.057-0.002,0.089,0.004    c-4.985,8.146-6.719,17.694-3.237,25.169c-0.528-0.314-1.027-0.619-1.459-0.903c-5.441-3.591-10.424-7.41-15.192-11.844    C47.841,91.373,48.077,88.371,48.312,85.369z M60.235,140.772c-3.712,0.836-7.814,0.167-11.43-0.761    c-0.44-0.113-0.864-0.127-1.262-0.07c-0.419-4.028-0.679-8.049-0.831-12.064c1.863,1.341,3.737,2.666,5.635,3.958    c3.774,2.569,7.537,6.011,12.111,6.875c0.688,0.13,1.293-0.135,1.687-0.569c0.039,0.274,0.062,0.559,0.113,0.824    C64.583,139.481,62.076,140.358,60.235,140.772z M70.648,117.039c1.02,0.143,1.821-0.378,2.019-1.249    c0.496,0.274,0.982,0.556,1.518,0.805c-2.992,2.886-5.442,6.51-6.602,9.022c-0.93,2.014-1.744,6.166-1.64,10.116    c-0.062-0.045-0.099-0.102-0.171-0.144c-6.4-3.661-12.856-7.141-19.106-11.045c-0.073-3.283-0.071-6.562-0.013-9.842    c0.393,0.267,0.793,0.53,1.154,0.792c2.575,1.861,5.13,3.752,7.684,5.644c1.868,1.383,9.418,8.608,11.264,4.026    c1.351-3.357-7.979-7.976-9.941-9.295c-2.542-1.71-5.088-3.414-7.651-5.091c-0.622-0.407-1.467-0.937-2.34-1.325    c0.119-3.439,0.349-6.877,0.556-10.313c2.832,3.126,6.368,5.674,9.708,8.171c2.535,1.896,5.091,3.755,7.572,5.724    C66.535,114.525,68.192,116.698,70.648,117.039z M69.729,78.713c-0.16-0.244-0.366-0.473-0.652-0.663    c-3.438-2.294-7.384-3.862-10.892-6.121c-2.877-1.853-5.633-3.889-8.38-5.935c0.195-2.72,0.368-5.442,0.527-8.165    c3.424,3.304,7.159,6.304,10.985,9.092c3.171,2.31,8.039,6.207,12.618,7.154C72.419,75.523,70.986,77.057,69.729,78.713z     M78.258,70.474c-3.561-3.024-8.894-4.412-12.9-6.875c-5.379-3.308-10.246-7.295-14.741-11.694    c0.07-1.554,0.158-3.107,0.206-4.663c2.308-0.074,4.601-0.072,6.893-0.066c1.739,4.022,7.409,6.919,10.731,9.113    c3.48,2.296,7.041,4.471,10.537,6.744c1.829,1.189,3.663,2.772,5.624,3.948C82.377,67.906,80.247,69.082,78.258,70.474z     M97.653,64.82c-2.507-0.196-4.956-0.021-7.325,0.435c-0.05-0.159-0.093-0.32-0.181-0.475c-2.72-4.782-10.576-7.729-15.168-10.407    c-3.858-2.251-7.588-4.712-11.352-7.1c5.11,0.144,10.19,0.449,15.261,0.821c-0.418,0.734-0.347,1.764,0.574,2.433    c7.47,5.421,15.415,10.195,23.296,15.048C101.092,65.212,99.386,64.956,97.653,64.82z M83.183,48.446    c6.59,0.532,13.174,1.144,19.789,1.691c5.215,4.711,10.661,9.126,16.306,13.32c6.543,4.862,13.677,10.492,21.347,13.495    c-0.196,2.338-0.312,4.693-0.34,7.059c-5.988-6.057-14.438-10.79-20.97-14.913C107.645,61.734,95.49,54.733,83.183,48.446z     M123.822,107.268c1.585,1.299,3.148,2.626,4.75,3.904c3.841,3.064,7.787,6.662,12.278,8.722    c-0.303,3.853-1.027,7.459-2.43,10.642c-3.133-2.339-6.642-4.257-9.852-6.45c-3.606-2.465-6.979-5.2-10.155-8.163    C120.635,113.402,122.46,110.44,123.822,107.268z M128.151,140.354c-0.037-4.236-2.043-8.903-4.224-11.726    c-3.102-4.015-7.446-6.36-12.188-7.332c1.541-0.812,2.964-1.835,4.286-2.991c5.678,6.351,12.597,12.604,19.827,16.534    C133.994,137.126,131.512,139.02,128.151,140.354z" fill="#FFFFFF"/>
	</g>
</g>
<g>
</g>
<g>
</g>
<g>
</g>
<g>
</g>
<g>
</g>
<g>
</g>
<g>
</g>
<g>
</g>
<g>
</g>
<g>
</g>
<g>
</g>
<g>
</g>
<g>
</g>
<g>
</g>
<g>
</g>
</svg>
